<svg viewBox="0 0 200 35" fill="#FFFFFF" xmlns="http://www.w3.org/2000/svg">
	<path d="M122.864 0.395996C125.432 0.395996 127.352 0.791996 128.624 1.584C129.92 2.352 130.568 3.3 130.568 4.428C130.568 5.34 130.184 6.048 129.416 6.552C128.672 7.032 127.688 7.272 126.464 7.272C125.336 7.272 124.46 6.996 123.836 6.444C123.212 5.892 122.9 5.208 122.9 4.392C122.9 3.888 123.056 3.36 123.368 2.808C122.648 2.808 122.048 2.988 121.568 3.348C121.088 3.684 120.716 4.272 120.452 5.112C120.308 5.64 120.236 6.132 120.236 6.588C120.236 7.164 120.332 7.62 120.524 7.956C120.74 8.268 121.04 8.424 121.424 8.424H123.548C124.796 8.424 125.42 8.808 125.42 9.576C125.42 9.672 125.396 9.816 125.348 10.008C125.204 10.536 124.904 10.932 124.448 11.196C124.016 11.46 123.356 11.592 122.468 11.592H121.388L117.824 23.256C117.752 23.544 117.716 23.796 117.716 24.012C117.716 24.324 117.776 24.576 117.896 24.768C118.016 24.936 118.184 25.104 118.4 25.272C118.568 25.44 118.688 25.584 118.76 25.704C118.832 25.8 118.844 25.932 118.796 26.1C118.676 26.412 118.436 26.64 118.076 26.784C117.716 26.928 117.164 27 116.42 27H108.212C107.588 27 107.132 26.904 106.844 26.712C106.556 26.496 106.46 26.22 106.556 25.884C106.652 25.596 106.904 25.344 107.312 25.128C107.672 24.936 107.972 24.708 108.212 24.444C108.452 24.18 108.656 23.76 108.824 23.184L111.632 13.968C111.752 13.608 111.812 13.236 111.812 12.852C111.812 12.372 111.704 12 111.488 11.736C111.296 11.448 110.996 11.136 110.588 10.8C110.324 10.584 110.12 10.404 109.976 10.26C109.856 10.092 109.796 9.9 109.796 9.684C109.772 9.228 109.928 8.904 110.264 8.712C110.624 8.52 111.296 8.424 112.28 8.424H113.18C113.012 7.824 112.928 7.224 112.928 6.624C112.928 6.024 113.036 5.4 113.252 4.752C113.708 3.528 114.68 2.496 116.168 1.65599C117.68 0.815996 119.912 0.395996 122.864 0.395996Z"/>
	<path d="M137.084 7.956C140.348 7.956 142.748 8.61599 144.284 9.936C145.844 11.256 146.624 12.984 146.624 15.12C146.624 15.84 146.528 16.644 146.336 17.532C145.88 19.5 145.028 21.228 143.78 22.716C142.532 24.18 140.996 25.32 139.172 26.136C137.372 26.928 135.416 27.324 133.304 27.324C129.968 27.324 127.496 26.664 125.888 25.344C124.304 24 123.512 22.224 123.512 20.016C123.512 19.272 123.608 18.444 123.8 17.532C124.256 15.66 125.12 14.004 126.392 12.564C127.688 11.1 129.26 9.972 131.108 9.18C132.98 8.364 134.972 7.956 137.084 7.956ZM136.976 11.16C136.472 11.16 135.932 11.616 135.356 12.528C134.804 13.416 134.144 15.108 133.376 17.604C132.608 20.1 132.224 21.852 132.224 22.86C132.224 23.388 132.308 23.748 132.476 23.94C132.644 24.108 132.872 24.192 133.16 24.192C133.664 24.24 134.18 23.808 134.708 22.896C135.26 21.984 135.944 20.208 136.76 17.568C137.504 15.24 137.876 13.548 137.876 12.492C137.876 11.988 137.792 11.64 137.624 11.448C137.48 11.256 137.264 11.16 136.976 11.16Z"/>
	<path d="M160.709 7.956C163.973 7.956 166.373 8.61599 167.909 9.936C169.469 11.256 170.249 12.984 170.249 15.12C170.249 15.84 170.153 16.644 169.961 17.532C169.505 19.5 168.653 21.228 167.405 22.716C166.157 24.18 164.621 25.32 162.797 26.136C160.997 26.928 159.041 27.324 156.929 27.324C153.593 27.324 151.121 26.664 149.513 25.344C147.929 24 147.137 22.224 147.137 20.016C147.137 19.272 147.233 18.444 147.425 17.532C147.881 15.66 148.745 14.004 150.017 12.564C151.313 11.1 152.885 9.972 154.733 9.18C156.605 8.364 158.597 7.956 160.709 7.956ZM160.601 11.16C160.097 11.16 159.557 11.616 158.981 12.528C158.429 13.416 157.769 15.108 157.001 17.604C156.233 20.1 155.849 21.852 155.849 22.86C155.849 23.388 155.933 23.748 156.101 23.94C156.269 24.108 156.497 24.192 156.785 24.192C157.289 24.24 157.805 23.808 158.333 22.896C158.885 21.984 159.569 20.208 160.385 17.568C161.129 15.24 161.501 13.548 161.501 12.492C161.501 11.988 161.417 11.64 161.249 11.448C161.105 11.256 160.889 11.16 160.601 11.16Z"/>
	<path d="M190.526 21.816C190.478 22.008 190.454 22.14 190.454 22.212C190.454 22.38 190.502 22.512 190.598 22.608C190.694 22.704 190.814 22.752 190.958 22.752C191.246 22.752 191.486 22.632 191.678 22.392C191.894 22.128 192.038 21.996 192.11 21.996C192.23 21.996 192.326 22.08 192.398 22.248C192.47 22.416 192.506 22.608 192.506 22.824C192.53 23.472 192.278 24.132 191.75 24.804C191.246 25.476 190.562 26.028 189.698 26.46C188.834 26.892 187.898 27.108 186.89 27.108C185.69 27.108 184.646 26.88 183.758 26.424C182.87 25.968 182.258 25.368 181.922 24.624C181.274 25.464 180.53 26.088 179.69 26.496C178.85 26.904 177.962 27.108 177.026 27.108C175.922 27.108 174.89 26.832 173.93 26.28C172.994 25.728 172.238 24.948 171.662 23.94C171.11 22.908 170.834 21.744 170.834 20.448C170.834 18.264 171.242 16.212 172.058 14.292C172.898 12.348 174.062 10.788 175.55 9.612C177.038 8.412 178.73 7.812 180.626 7.812C181.658 7.812 182.534 7.932 183.254 8.172C183.998 8.412 184.67 8.772 185.27 9.252L186.494 5.22C186.566 5.004 186.602 4.824 186.602 4.68C186.602 4.416 186.53 4.2 186.386 4.032C186.266 3.864 186.098 3.696 185.882 3.528C185.642 3.336 185.462 3.168 185.342 3.024C185.246 2.88 185.234 2.688 185.306 2.448C185.45 1.896 186.206 1.416 187.574 1.00799C188.942 0.599996 190.37 0.395996 191.858 0.395996C193.25 0.395996 194.27 0.659996 194.918 1.188C195.59 1.716 195.926 2.436 195.926 3.348C195.926 3.876 195.842 4.392 195.674 4.896L190.526 21.816ZM184.514 11.7C184.13 11.364 183.71 11.196 183.254 11.196C182.558 11.196 181.874 11.712 181.202 12.744C180.53 13.776 179.99 15.024 179.582 16.488C179.174 17.952 178.982 19.272 179.006 20.448C179.006 21.768 179.438 22.428 180.302 22.428C180.614 22.428 180.878 22.308 181.094 22.068C181.31 21.804 181.514 21.384 181.706 20.808L184.514 11.7Z"/>
</svg>