<svg viewBox="0 0 200 35" fill="#FFFFFF" xmlns="http://www.w3.org/2000/svg">
	<path d="M13.932 7.956C17.196 7.956 19.596 8.61599 21.132 9.936C22.692 11.256 23.472 12.984 23.472 15.12C23.472 15.84 23.376 16.644 23.184 17.532C22.728 19.5 21.876 21.228 20.628 22.716C19.38 24.18 17.844 25.32 16.02 26.136C14.22 26.928 12.264 27.324 10.152 27.324C6.81599 27.324 4.34399 26.664 2.73599 25.344C1.15199 24 0.359985 22.224 0.359985 20.016C0.359985 19.272 0.455985 18.444 0.647985 17.532C1.10399 15.66 1.96799 14.004 3.23999 12.564C4.53599 11.1 6.10799 9.972 7.95599 9.18C9.82799 8.364 11.82 7.956 13.932 7.956ZM13.824 11.16C13.32 11.16 12.78 11.616 12.204 12.528C11.652 13.416 10.992 15.108 10.224 17.604C9.45599 20.1 9.07199 21.852 9.07199 22.86C9.07199 23.388 9.15599 23.748 9.32399 23.94C9.49199 24.108 9.71999 24.192 10.008 24.192C10.512 24.24 11.028 23.808 11.556 22.896C12.108 21.984 12.792 20.208 13.608 17.568C14.352 15.24 14.724 13.548 14.724 12.492C14.724 11.988 14.64 11.64 14.472 11.448C14.328 11.256 14.112 11.16 13.824 11.16Z"/>
	<path d="M44.9899 22.032C44.9419 22.128 44.9179 22.272 44.9179 22.464C44.9179 22.632 44.9539 22.764 45.0259 22.86C45.1219 22.956 45.2419 23.004 45.3859 23.004C45.6739 23.004 45.9139 22.884 46.1059 22.644C46.3219 22.38 46.4659 22.248 46.5379 22.248C46.6579 22.248 46.7539 22.332 46.8259 22.5C46.8979 22.644 46.9339 22.824 46.9339 23.04C46.9579 23.736 46.7299 24.42 46.2499 25.092C45.7699 25.74 45.0619 26.28 44.1259 26.712C43.2139 27.12 42.1099 27.324 40.8139 27.324C39.2299 27.324 37.9699 26.964 37.0339 26.244C36.0979 25.5 35.6179 24.516 35.5939 23.292C35.5939 22.404 35.8099 21.408 36.2419 20.304L38.2219 15.12C38.3419 14.808 38.4019 14.556 38.4019 14.364C38.4019 14.052 38.2939 13.812 38.0779 13.644C37.8859 13.452 37.6459 13.356 37.3579 13.356C36.9019 13.356 36.4339 13.572 35.9539 14.004C35.4979 14.412 35.1259 15.084 34.8379 16.02V15.948L32.5699 23.256C32.4979 23.544 32.4619 23.796 32.4619 24.012C32.4619 24.324 32.5219 24.576 32.6419 24.768C32.7619 24.936 32.9299 25.104 33.1459 25.272C33.3139 25.44 33.4339 25.584 33.5059 25.704C33.5779 25.8 33.5899 25.932 33.5419 26.1C33.4219 26.412 33.1819 26.64 32.8219 26.784C32.4619 26.928 31.9099 27 31.1659 27H22.9579C22.3339 27 21.8779 26.904 21.5899 26.712C21.3019 26.496 21.2059 26.22 21.3019 25.884C21.3979 25.596 21.6499 25.344 22.0579 25.128C22.4179 24.936 22.7179 24.708 22.9579 24.444C23.1979 24.18 23.4019 23.76 23.5699 23.184L29.0419 5.22C29.1139 5.004 29.1499 4.824 29.1499 4.68C29.1499 4.416 29.0779 4.2 28.9339 4.032C28.8139 3.864 28.6459 3.696 28.4299 3.528C28.1899 3.336 28.0099 3.168 27.8899 3.024C27.7939 2.88 27.7819 2.688 27.8539 2.448C27.9979 1.896 28.7539 1.416 30.1219 1.00799C31.4899 0.599996 32.9179 0.395996 34.4059 0.395996C35.7979 0.395996 36.8179 0.659996 37.4659 1.188C38.1379 1.716 38.4739 2.436 38.4739 3.348C38.4739 3.876 38.3899 4.392 38.2219 4.896L36.2779 11.232C37.2139 10.008 38.1979 9.156 39.2299 8.676C40.2859 8.196 41.4259 7.956 42.6499 7.956C44.1139 7.956 45.2899 8.4 46.1779 9.288C47.0899 10.176 47.5459 11.328 47.5459 12.744C47.5459 13.488 47.4259 14.22 47.1859 14.94L44.9899 22.032Z"/>
	<path d="M82.7165 22.032C82.6685 22.128 82.6445 22.272 82.6445 22.464C82.6445 22.632 82.6805 22.764 82.7525 22.86C82.8485 22.956 82.9685 23.004 83.1125 23.004C83.4005 23.004 83.6405 22.884 83.8325 22.644C84.0485 22.38 84.1925 22.248 84.2645 22.248C84.3845 22.248 84.4805 22.332 84.5525 22.5C84.6245 22.644 84.6605 22.824 84.6605 23.04C84.6845 23.736 84.4565 24.42 83.9765 25.092C83.4965 25.74 82.7885 26.28 81.8525 26.712C80.9405 27.12 79.8365 27.324 78.5405 27.324C76.9565 27.324 75.6965 26.964 74.7605 26.244C73.8245 25.5 73.3445 24.516 73.3205 23.292C73.3205 22.404 73.5365 21.408 73.9685 20.304L75.9485 15.12C76.0685 14.808 76.1285 14.556 76.1285 14.364C76.1285 14.052 76.0205 13.812 75.8045 13.644C75.6125 13.452 75.3725 13.356 75.0845 13.356C74.6765 13.356 74.2565 13.536 73.8245 13.896C73.3925 14.256 73.0085 14.82 72.6725 15.588L70.6925 22.032C70.6445 22.128 70.6205 22.272 70.6205 22.464C70.6205 22.632 70.6565 22.764 70.7285 22.86C70.8245 22.956 70.9445 23.004 71.0885 23.004C71.3765 23.004 71.6165 22.884 71.8085 22.644C72.0245 22.38 72.1685 22.248 72.2405 22.248C72.3605 22.248 72.4565 22.332 72.5285 22.5C72.6005 22.644 72.6365 22.824 72.6365 23.04C72.6605 23.736 72.4325 24.42 71.9525 25.092C71.4725 25.74 70.7645 26.28 69.8285 26.712C68.9165 27.12 67.8125 27.324 66.5165 27.324C64.9325 27.324 63.6725 26.964 62.7365 26.244C61.8005 25.5 61.3205 24.516 61.2965 23.292C61.2965 22.404 61.5125 21.408 61.9445 20.304L63.9245 15.12C64.0445 14.808 64.1045 14.556 64.1045 14.364C64.1045 14.052 63.9965 13.812 63.7805 13.644C63.5885 13.452 63.3485 13.356 63.0605 13.356C62.6525 13.356 62.2325 13.536 61.8005 13.896C61.3685 14.232 61.0085 14.784 60.7205 15.552L58.3445 23.256C58.2485 23.52 58.2005 23.772 58.2005 24.012C58.2005 24.3 58.2605 24.54 58.3805 24.732C58.5005 24.9 58.6685 25.08 58.8845 25.272C59.0525 25.416 59.1725 25.548 59.2445 25.668C59.3165 25.788 59.3285 25.932 59.2805 26.1C59.1845 26.412 58.9565 26.64 58.5965 26.784C58.2365 26.928 57.6725 27 56.9045 27H48.6965C48.0725 27 47.6285 26.904 47.3645 26.712C47.0765 26.496 46.9685 26.22 47.0405 25.884C47.1365 25.596 47.3885 25.344 47.7965 25.128C48.1565 24.936 48.4565 24.708 48.6965 24.444C48.9365 24.18 49.1405 23.76 49.3085 23.184L52.5125 12.78C52.5605 12.66 52.5845 12.492 52.5845 12.276C52.5845 12.012 52.5245 11.808 52.4045 11.664C52.3085 11.52 52.1405 11.34 51.9005 11.124C51.6605 10.932 51.4925 10.764 51.3965 10.62C51.3005 10.476 51.2885 10.284 51.3605 10.044C51.5045 9.492 52.2605 9.012 53.6285 8.604C54.9965 8.172 56.4245 7.956 57.9125 7.956C59.0885 7.956 60.0125 8.28 60.6845 8.928C61.3805 9.576 61.7165 10.464 61.6925 11.592C62.6765 10.224 63.7085 9.276 64.7885 8.748C65.8925 8.22 67.0805 7.956 68.3525 7.956C69.7445 7.956 70.8725 8.364 71.7365 9.18C72.6245 9.972 73.1165 11.016 73.2125 12.312C74.2445 10.68 75.3485 9.552 76.5245 8.928C77.7005 8.28 78.9845 7.956 80.3765 7.956C81.8405 7.956 83.0165 8.4 83.9045 9.288C84.8165 10.176 85.2725 11.328 85.2725 12.744C85.2725 13.488 85.1525 14.22 84.9125 14.94L82.7165 22.032Z"/>
	<path d="M104.932 7.956C105.988 7.956 106.828 8.388 107.452 9.252C108.1 10.092 108.424 11.244 108.424 12.708C108.424 13.98 108.196 15.348 107.74 16.812C106.852 19.764 105.424 22.548 103.456 25.164C101.512 27.78 99.2675 29.88 96.7235 31.464C94.2035 33.048 91.6836 33.84 89.1636 33.84C87.9156 33.84 86.8355 33.624 85.9235 33.192C85.0355 32.76 84.3635 32.184 83.9075 31.464C83.4275 30.744 83.1875 29.976 83.1875 29.16C83.1875 28.8 83.2475 28.404 83.3675 27.972C83.5835 27.3 83.9435 26.784 84.4475 26.424C84.9515 26.064 85.5516 25.884 86.2476 25.884C87.3516 25.884 88.2515 26.256 88.9475 27C89.6675 27.768 90.1236 28.812 90.3156 30.132C91.8516 30.06 93.2675 29.4 94.5635 28.152C93.3395 27.936 92.4275 27.528 91.8275 26.928C91.2515 26.304 90.8555 25.344 90.6395 24.048L89.1995 15.228C89.1275 14.772 89.0195 14.46 88.8755 14.292C88.7555 14.1 88.5876 14.004 88.3716 14.004C88.2036 14.004 87.9995 14.088 87.7595 14.256C87.5435 14.424 87.3875 14.508 87.2915 14.508C87.0995 14.508 87.0035 14.304 87.0035 13.896C87.0035 13.56 87.0635 13.2 87.1835 12.816C87.6155 11.448 88.4196 10.296 89.5956 9.36C90.7716 8.4 92.1395 7.92 93.6995 7.92C95.2355 7.92 96.3635 8.376 97.0835 9.288C97.8275 10.2 98.3076 11.604 98.5236 13.5L99.6035 21.42C99.6755 22.02 99.8915 22.32 100.252 22.32C100.684 22.32 101.188 21.936 101.764 21.168C102.34 20.376 102.904 19.26 103.456 17.82C102.736 17.172 102.184 16.428 101.8 15.588C101.416 14.748 101.224 13.848 101.224 12.888C101.224 12.144 101.32 11.472 101.512 10.872C101.8 9.912 102.244 9.192 102.844 8.712C103.468 8.208 104.164 7.956 104.932 7.956Z"/>
</svg>